<svg id="Layer_1" data-name="Layer 1" xmlns="http://www.w3.org/2000/svg" viewBox="0 0 1923.27 1083.55"><defs><style>.cls-1{fill:#265997;stroke:#265997;}.cls-2{fill:#2a457b;stroke:#2a457b;}.cls-3{fill:#3194cf;stroke:#3194cf;}.cls-4{fill:#3591c7;stroke:#3591c7;}.cls-5{fill:#37a8db;stroke:#37a8db;}.cls-6{fill:#419bce;stroke:#419bce;}.cls-7{fill:#49a0d2;stroke:#49a0d2;}.cls-8{fill:#459fd2;stroke:#459fd2;}.cls-9{fill:#263f6e;stroke:#263f6e;}.cls-10{fill:#274372;stroke:#274372;}.cls-11{fill:#2860a2;stroke:#2860a2;}.cls-12{fill:#27a5df;stroke:#27a5df;}.cls-13{fill:#3098d0;stroke:#3098d0;}.cls-14{fill:#349ed6;stroke:#349ed6;}.cls-15{fill:#25477d;stroke:#25477d;}.cls-16{fill:#3896cd;stroke:#3896cd;}.cls-17{fill:#3a98cd;stroke:#3a98cd;}.cls-18{fill:#1b2945;stroke:#1b2945;}.cls-19{fill:#29508a;stroke:#29508a;}.cls-20{fill:#27477e;stroke:#27477e;}.cls-21{fill:#284375;stroke:#284375;}.cls-22{fill:#223254;stroke:#223254;}.cls-23{fill:#1f2d4b;stroke:#1f2d4b;}.cls-24{fill:#74b9df;stroke:#74b9df;}.cls-25{fill:#253b64;stroke:#253b64;}.cls-26{fill:#1c6eaf;stroke:#1c6eaf;}.cls-27{fill:#506080;stroke:#506080;}.cls-28{fill:#8ecde7;stroke:#8ecde7;}.cls-29{fill:#38a4db;stroke:#38a4db;}.cls-30{fill:#1c2a46;stroke:#1c2a46;}.cls-31{fill:#49a0d4;stroke:#49a0d4;}.cls-32{fill:#479ed2;stroke:#479ed2;}.cls-33{fill:#267fb8;stroke:#267fb8;}.cls-34{fill:#3d9bd0;stroke:#3d9bd0;}.cls-35{fill:#1d78b6;stroke:#1d78b6;}.cls-36{fill:#257bb5;stroke:#257bb5;}.cls-37{fill:#349cd4;stroke:#349cd4;}.cls-38{fill:#202e4c;stroke:#202e4c;}.cls-39{fill:#1c2a48;stroke:#1c2a48;}.cls-40{fill:#2861a0;stroke:#2861a0;}.cls-41{fill:#339dd5;stroke:#339dd5;}.cls-42{fill:#27a1db;stroke:#27a1db;}.cls-43{fill:#253b63;stroke:#253b63;}.cls-44{fill:#213557;stroke:#213557;}.cls-45{fill:#27406f;stroke:#27406f;}.cls-46{fill:#7ebbe8;stroke:#7ebbe8;}.cls-47{fill:#60a5cd;stroke:#60a5cd;}.cls-48{fill:#358dc2;stroke:#358dc2;}.cls-49{fill:#4aa1d5;stroke:#4aa1d5;}.cls-50{fill:#7db7e3;stroke:#7db7e3;}.cls-51{fill:#54a4d6;stroke:#54a4d6;}.cls-52{fill:#285897;stroke:#285897;}.cls-53{fill:#3894ca;stroke:#3894ca;}.cls-54{fill:#2086c0;stroke:#2086c0;}.cls-55{fill:#56a5d7;stroke:#56a5d7;}.cls-56{fill:#267db9;stroke:#267db9;}.cls-57{fill:#29a1d7;stroke:#29a1d7;}.cls-58{fill:#269ad2;stroke:#269ad2;}.cls-59{fill:#339bd3;stroke:#339bd3;}.cls-60{fill:#1d2e51;stroke:#1d2e51;}.cls-61{fill:#26a4de;stroke:#26a4de;}.cls-62{fill:#26a7e0;stroke:#26a7e0;}.cls-63{fill:#275a98;stroke:#275a98;}.cls-64{fill:#28467b;stroke:#28467b;}.cls-65{fill:#294679;stroke:#294679;}.cls-66{fill:#294478;stroke:#294478;}.cls-67{fill:#294981;stroke:#294981;}.cls-68{fill:#24395f;stroke:#24395f;}.cls-69{fill:#8fc1e3;stroke:#8fc1e3;}.cls-70{fill:#2168a7;stroke:#2168a7;}.cls-71{fill:#329cd4;stroke:#329cd4;}.cls-72{fill:#23365b;stroke:#23365b;}.cls-73{fill:#245795;stroke:#245795;}.cls-74{fill:#289ed7;stroke:#289ed7;}.cls-75{fill:#263e69;stroke:#263e69;}.cls-76{fill:#1b2545;stroke:#1b2545;}.cls-77{fill:#213255;stroke:#213255;}.cls-78{fill:#264a85;stroke:#264a85;}.cls-79{fill:#27a1d9;stroke:#27a1d9;}.cls-80{fill:#3795ca;stroke:#3795ca;}.cls-81{fill:#43a1d4;stroke:#43a1d4;}.cls-82{fill:#26406c;stroke:#26406c;}.cls-83{fill:#274274;stroke:#274274;}.cls-84{fill:#294476;stroke:#294476;}.cls-85{fill:#24a8e2;stroke:#24a8e2;}.cls-86{fill:#fffaff;stroke:#fffaff;}.cls-87{fill:#27a8e1;stroke:#27a8e1;}.cls-88{fill:#285b9b;stroke:#285b9b;}.cls-89{fill:#213254;stroke:#213254;}.cls-90{fill:#22375b;stroke:#22375b;}.cls-91{fill:#2693cd;stroke:#2693cd;}.cls-92{fill:#98c1e4;stroke:#98c1e4;}.cls-93{fill:#24aae1;stroke:#24aae1;}.cls-94{fill:#3b95ca;stroke:#3b95ca;}.cls-95{fill:#29a7e1;stroke:#29a7e1;}.cls-96{fill:#263c67;stroke:#263c67;}.cls-97{fill:#274b84;stroke:#274b84;}.cls-98{fill:#203051;stroke:#203051;}.cls-99{fill:#4fa6d8;stroke:#4fa6d8;}.cls-100{fill:#24a8e0;stroke:#24a8e0;}.cls-101{fill:#58a9d8;stroke:#58a9d8;}.cls-102{fill:#285192;stroke:#285192;}.cls-103{fill:#279bd3;stroke:#279bd3;}.cls-104{fill:#253962;stroke:#253962;}.cls-105{fill:#223658;stroke:#223658;}.cls-106{fill:#212f4d;stroke:#212f4d;}.cls-107{fill:#284578;stroke:#284578;}.cls-108{fill:#3a9ad1;stroke:#3a9ad1;}.cls-109{fill:#b3d2ef;stroke:#b3d2ef;}.cls-110{fill:#499ccf;stroke:#499ccf;}.cls-111{fill:#27457a;stroke:#27457a;}.cls-112{fill:#97a5c3;stroke:#97a5c3;}.cls-113{fill:#6eaad7;stroke:#6eaad7;}.cls-114{fill:#3b99ce;stroke:#3b99ce;}.cls-115{fill:#274d87;stroke:#274d87;}.cls-116{fill:#4d9dd1;stroke:#4d9dd1;}.cls-117{fill:#284e8e;stroke:#284e8e;}.cls-118{fill:#294f8f;stroke:#294f8f;}.cls-119{fill:#28a3dd;stroke:#28a3dd;}.cls-120{fill:#4ba5d8;stroke:#4ba5d8;}.cls-121{fill:#3b99cd;stroke:#3b99cd;}.cls-122{fill:#2895cf;stroke:#2895cf;}.cls-123{fill:#265594;stroke:#265594;}.cls-124{fill:#75b1de;stroke:#75b1de;}.cls-125{fill:#1d2b49;stroke:#1d2b49;}.cls-126{fill:#72b7e7;stroke:#72b7e7;}.cls-127{fill:#213151;stroke:#213151;}.cls-128{fill:#263c65;stroke:#263c65;}.cls-129{fill:#349ad1;stroke:#349ad1;}.cls-130{fill:#bbd6f0;stroke:#bbd6f0;}.cls-131{fill:#2b5a99;stroke:#2b5a99;}.cls-132{fill:#589ed1;stroke:#589ed1;}.cls-133{fill:#aacae8;stroke:#aacae8;}.cls-134{fill:#2793cb;stroke:#2793cb;}.cls-135{fill:#26a0d8;stroke:#26a0d8;}.cls-136{fill:#264271;stroke:#264271;}.cls-137{fill:#329dd0;stroke:#329dd0;}.cls-138{fill:#1e2c4a;stroke:#1e2c4a;}.cls-139{fill:#28487f;stroke:#28487f;}.cls-140{fill:#459ed1;stroke:#459ed1;}.cls-141{fill:#235;stroke:#235;}.cls-142{fill:#284c87;stroke:#284c87;}.cls-143{fill:#bcd7ef;stroke:#bcd7ef;}.cls-144{fill:#c2dbf1;stroke:#c2dbf1;}.cls-145{fill:#213153;stroke:#213153;}.cls-146{fill:#264270;stroke:#264270;}.cls-147{fill:#a3ceef;stroke:#a3ceef;}.cls-148{fill:#acccec;stroke:#acccec;}.cls-149{fill:#298fc9;stroke:#298fc9;}.cls-150{fill:#52a0d5;stroke:#52a0d5;}.cls-151{fill:#2a65a2;stroke:#2a65a2;}.cls-152{fill:#29477e;stroke:#29477e;}.cls-153{fill:#9ac7eb;stroke:#9ac7eb;}.cls-154{fill:#2894cc;stroke:#2894cc;}.cls-155{fill:#265f9f;stroke:#265f9f;}.cls-156{fill:#2379b3;stroke:#2379b3;}.cls-157{fill:#288fc9;stroke:#288fc9;}.cls-158{fill:#284d8a;stroke:#284d8a;}.cls-159{fill:#284d8b;stroke:#284d8b;}.cls-160{fill:#b2d4f1;stroke:#b2d4f1;}.cls-161{fill:#294272;stroke:#294272;}.cls-162{fill:#2e4b84;stroke:#2e4b84;}.cls-163{fill:#aed0ed;stroke:#aed0ed;}.cls-164{fill:#68acdc;stroke:#68acdc;}.cls-165{fill:#23a1da;stroke:#23a1da;}.cls-166{fill:#5ca1d1;stroke:#5ca1d1;}.cls-167{fill:#26477b;stroke:#26477b;}.cls-168{fill:#25385f;stroke:#25385f;}.cls-169{fill:#299fd8;stroke:#299fd8;}.cls-170{fill:#3294cc;stroke:#3294cc;}.cls-171{fill:#3d9cc9;stroke:#3d9cc9;}.cls-172{fill:#2b88c4;stroke:#2b88c4;}.cls-173{fill:#838eb2;stroke:#838eb2;}.cls-174{fill:#255c9e;stroke:#255c9e;}.cls-175{fill:#7db5df;stroke:#7db5df;}.cls-176{fill:#2485c1;stroke:#2485c1;}.cls-177{fill:#63b2e1;stroke:#63b2e1;}.cls-178{fill:#8cbfe5;stroke:#8cbfe5;}.cls-179{fill:#7db5e1;stroke:#7db5e1;}.cls-180{fill:#28a6e0;stroke:#28a6e0;}.cls-181{fill:#223356;stroke:#223356;}.cls-182{fill:#26a3e0;stroke:#26a3e0;}.cls-183{fill:#56a3d4;stroke:#56a3d4;}.cls-184{fill:#47a0d1;stroke:#47a0d1;}.cls-185{fill:#5eafde;stroke:#5eafde;}.cls-186{fill:#71b6e0;stroke:#71b6e0;}.cls-187{fill:#5da8d8;stroke:#5da8d8;}.cls-188{fill:#79b5e2;stroke:#79b5e2;}.cls-189{fill:#3397cc;stroke:#3397cc;}.cls-190{fill:#202d4e;stroke:#202d4e;}.cls-191{fill:#23a9e0;stroke:#23a9e0;}.cls-192{fill:#289cd4;stroke:#289cd4;}.cls-193{fill:#6cb0dc;stroke:#6cb0dc;}.cls-194{fill:#58a8dc;stroke:#58a8dc;}.cls-195{fill:#2a487f;stroke:#2a487f;}.cls-196{fill:#2964a1;stroke:#2964a1;}.cls-197{fill:#3d97cc;stroke:#3d97cc;}.cls-198{fill:#2962a0;stroke:#2962a0;}.cls-199{fill:#25538e;stroke:#25538e;}.cls-200{fill:#248ac3;stroke:#248ac3;}.cls-201{fill:#279fd5;stroke:#279fd5;}.cls-202{fill:#73b0dd;stroke:#73b0dd;}.cls-203{fill:#4da0d3;stroke:#4da0d3;}.cls-204{fill:#53a3d5;stroke:#53a3d5;}.cls-205{fill:#35a1d8;stroke:#35a1d8;}.cls-206{fill:#3595cc;stroke:#3595cc;}.cls-207{fill:#2a518d;stroke:#2a518d;}.cls-208{fill:#26a4db;stroke:#26a4db;}.cls-209{fill:#26a4dd;stroke:#26a4dd;}.cls-210{fill:#329ad2;stroke:#329ad2;}.cls-211{fill:#409ad0;stroke:#409ad0;}.cls-212{fill:#28447a;stroke:#28447a;}.cls-213{fill:#2a508a;stroke:#2a508a;}.cls-214{fill:#275796;stroke:#275796;}.cls-215{fill:#265d9e;stroke:#265d9e;}.cls-216{fill:#2172b0;stroke:#2172b0;}.cls-217{fill:#3193cb;stroke:#3193cb;}.cls-218{fill:#379acd;stroke:#379acd;}.cls-219{fill:#68addd;stroke:#68addd;}.cls-220{fill:#70b1de;stroke:#70b1de;}.cls-221{fill:#1b2947;stroke:#1b2947;}.cls-222{fill:#1f2f4f;stroke:#1f2f4f;}</style></defs><polygon class="cls-1" points="1.61 498.69 1.61 597.69 16.61 516.69 1.61 498.69"/><polygon class="cls-2" points="1.61 398.69 1.61 498.69 41.61 411.69 1.61 398.69"/><polygon class="cls-3" points="1.61 896.69 1.61 995.69 66.61 911.69 1.61 896.69"/><polygon class="cls-4" points="61.61 891.69 1.61 896.69 66.61 911.69 61.61 891.69"/><polygon class="cls-5" points="1.61 995.69 1.61 1081.69 81.61 1026.69 1.61 995.69"/><polygon class="cls-6" points="1.61 697.69 1.61 796.69 61.61 796.69 1.61 697.69"/><polygon class="cls-7" points="1.61 796.69 61.61 891.69 61.61 796.69 1.61 796.69"/><polygon class="cls-8" points="1.61 796.69 1.61 896.69 61.61 891.69 1.61 796.69"/><polygon class="cls-9" points="1.61 299.69 1.61 398.69 91.61 346.69 1.61 299.69"/><polygon class="cls-10" points="1.61 398.69 41.61 411.69 91.61 346.69 1.61 398.69"/><polygon class="cls-11" points="16.61 516.69 1.61 597.69 81.61 526.69 16.61 516.69"/><polygon class="cls-12" points="81.61 1026.69 1.61 1081.69 100.61 1081.69 81.61 1026.69"/><polygon class="cls-13" points="66.61 911.69 1.61 995.69 106.61 946.69 66.61 911.69"/><polygon class="cls-14" points="1.61 995.69 81.61 1026.69 106.61 946.69 1.61 995.69"/><polygon class="cls-15" points="1.61 498.69 16.61 516.69 41.61 411.69 1.61 498.69"/><polygon class="cls-16" points="61.61 891.69 66.61 911.69 116.61 916.69 61.61 891.69"/><polygon class="cls-17" points="66.61 911.69 106.61 946.69 116.61 916.69 66.61 911.69"/><polygon class="cls-18" points="1.61 1.69 1.61 100.69 100.61 1.69 1.61 1.69"/><polygon class="cls-19" points="41.61 411.69 16.61 516.69 81.61 526.69 41.61 411.69"/><polygon class="cls-20" points="41.61 411.69 81.61 526.69 156.61 456.69 41.61 411.69"/><polygon class="cls-21" points="91.61 346.69 41.61 411.69 156.61 456.69 91.61 346.69"/><polygon class="cls-22" points="1.61 100.69 1.61 199.69 156.61 161.69 1.61 100.69"/><polygon class="cls-23" points="100.61 1.69 1.61 100.69 156.61 161.69 100.61 1.69"/><polygon class="cls-24" points="61.61 796.69 61.61 891.69 116.61 916.69 61.61 796.69"/><polygon class="cls-25" points="1.61 199.69 1.61 299.69 91.61 346.69 1.61 199.69"/><polygon class="cls-26" points="1.61 597.69 1.61 631.69 81.61 526.69 1.61 597.69"/><polygon class="cls-27" points="1.61 199.69 91.61 346.69 156.61 161.69 1.61 199.69"/><polygon class="cls-28" points="81.61 1026.69 100.61 1081.69 199.61 1081.69 81.61 1026.69"/><polygon class="cls-29" points="106.61 946.69 81.61 1026.69 199.61 1081.69 106.61 946.69"/><polygon class="cls-30" points="100.61 1.69 156.61 161.69 199.61 1.69 100.61 1.69"/><polygon class="cls-31" points="61.61 796.69 116.61 916.69 196.61 896.69 61.61 796.69"/><polygon class="cls-32" points="196.61 761.69 61.61 796.69 196.61 896.69 196.61 761.69"/><polygon class="cls-16" points="116.61 916.69 106.61 946.69 196.61 896.69 116.61 916.69"/><polygon class="cls-33" points="1.61 631.69 1.61 697.69 196.61 761.69 1.61 631.69"/><polygon class="cls-34" points="1.61 697.69 61.61 796.69 196.61 761.69 1.61 697.69"/><polygon class="cls-35" points="81.61 526.69 1.61 631.69 246.61 686.69 81.61 526.69"/><polygon class="cls-36" points="1.61 631.69 196.61 761.69 246.61 686.69 1.61 631.69"/><polygon class="cls-7" points="196.61 761.69 196.61 896.69 276.61 856.69 196.61 761.69"/><polygon class="cls-37" points="196.61 896.69 106.61 946.69 199.61 1081.69 196.61 896.69"/><polygon class="cls-38" points="199.61 1.69 156.61 161.69 306.61 121.69 199.61 1.69"/><polygon class="cls-39" points="299.61 1.69 199.61 1.69 306.61 121.69 299.61 1.69"/><polygon class="cls-40" points="156.61 456.69 81.61 526.69 246.61 686.69 156.61 456.69"/><polygon class="cls-41" points="196.61 896.69 199.61 1081.69 331.61 971.69 196.61 896.69"/><polygon class="cls-42" points="199.61 1081.69 299.61 1081.69 331.61 971.69 199.61 1081.69"/><polygon class="cls-43" points="156.61 161.69 91.61 346.69 341.61 276.69 156.61 161.69"/><polygon class="cls-44" points="306.61 121.69 156.61 161.69 341.61 276.69 306.61 121.69"/><polygon class="cls-45" points="91.61 346.69 156.61 456.69 341.61 276.69 91.61 346.69"/><polygon class="cls-46" points="196.61 761.69 276.61 856.69 336.61 826.69 196.61 761.69"/><polygon class="cls-47" points="316.61 696.69 196.61 761.69 336.61 826.69 316.61 696.69"/><polygon class="cls-16" points="276.61 856.69 196.61 896.69 331.61 971.69 276.61 856.69"/><polygon class="cls-48" points="246.61 686.69 196.61 761.69 316.61 696.69 246.61 686.69"/><polygon class="cls-16" points="276.61 856.69 331.61 971.69 381.61 936.69 276.61 856.69"/><polygon class="cls-49" points="336.61 826.69 276.61 856.69 381.61 936.69 336.61 826.69"/><polygon class="cls-50" points="316.61 696.69 336.61 826.69 366.61 806.69 316.61 696.69"/><polygon class="cls-51" points="366.61 806.69 336.61 826.69 401.61 846.69 366.61 806.69"/><polygon class="cls-31" points="336.61 826.69 381.61 936.69 401.61 846.69 336.61 826.69"/><polygon class="cls-52" points="156.61 456.69 246.61 686.69 401.61 491.69 156.61 456.69"/><polygon class="cls-42" points="331.61 971.69 299.61 1081.69 398.61 1081.69 331.61 971.69"/><polygon class="cls-53" points="401.61 846.69 381.61 936.69 421.61 931.69 401.61 846.69"/><polygon class="cls-51" points="366.61 806.69 401.61 846.69 416.61 836.69 366.61 806.69"/><polygon class="cls-21" points="341.61 276.69 156.61 456.69 401.61 491.69 341.61 276.69"/><polygon class="cls-54" points="246.61 686.69 376.61 671.69 401.61 491.69 246.61 686.69"/><polygon class="cls-39" points="299.61 1.69 306.61 121.69 398.61 1.69 299.61 1.69"/><polygon class="cls-55" points="316.61 696.69 366.61 806.69 376.61 671.69 316.61 696.69"/><polygon class="cls-56" points="246.61 686.69 316.61 696.69 376.61 671.69 246.61 686.69"/><polygon class="cls-41" points="381.61 936.69 331.61 971.69 451.61 1046.69 381.61 936.69"/><polygon class="cls-57" points="331.61 971.69 398.61 1081.69 451.61 1046.69 331.61 971.69"/><polygon class="cls-58" points="421.61 931.69 451.61 1046.69 466.61 1031.69 421.61 931.69"/><polygon class="cls-59" points="421.61 931.69 381.61 936.69 451.61 1046.69 421.61 931.69"/><polygon class="cls-60" points="306.61 121.69 341.61 276.69 481.61 136.69 306.61 121.69"/><polygon class="cls-23" points="398.61 1.69 306.61 121.69 481.61 136.69 398.61 1.69"/><polygon class="cls-45" points="341.61 276.69 401.61 491.69 466.61 306.69 341.61 276.69"/><polygon class="cls-49" points="416.61 836.69 401.61 846.69 421.61 931.69 416.61 836.69"/><polygon class="cls-61" points="466.61 1031.69 451.61 1046.69 498.61 1081.69 466.61 1031.69"/><polygon class="cls-62" points="451.61 1046.69 398.61 1081.69 498.61 1081.69 451.61 1046.69"/><polygon class="cls-63" points="401.61 491.69 376.61 671.69 486.61 536.69 401.61 491.69"/><polygon class="cls-10" points="466.61 306.69 401.61 491.69 511.61 371.69 466.61 306.69"/><polygon class="cls-64" points="401.61 491.69 511.61 446.69 516.61 411.69 401.61 491.69"/><polygon class="cls-65" points="516.61 396.69 401.61 491.69 516.61 411.69 516.61 396.69"/><polygon class="cls-66" points="511.61 371.69 401.61 491.69 516.61 396.69 511.61 371.69"/><polygon class="cls-67" points="401.61 491.69 486.61 536.69 511.61 446.69 401.61 491.69"/><polygon class="cls-68" points="341.61 276.69 466.61 306.69 481.61 136.69 341.61 276.69"/><polygon class="cls-18" points="398.61 1.69 481.61 136.69 498.61 1.69 398.61 1.69"/><polygon class="cls-69" points="376.61 671.69 366.61 806.69 416.61 836.69 376.61 671.69"/><polygon class="cls-70" points="486.61 536.69 376.61 671.69 536.61 616.69 486.61 536.69"/><polygon class="cls-61" points="466.61 1031.69 498.61 1081.69 526.61 1071.69 466.61 1031.69"/><polygon class="cls-71" points="421.61 931.69 466.61 1031.69 541.61 971.69 421.61 931.69"/><polygon class="cls-72" points="481.61 136.69 466.61 306.69 546.61 216.69 481.61 136.69"/><polygon class="cls-73" points="486.61 536.69 536.61 616.69 541.61 561.69 486.61 536.69"/><polygon class="cls-74" points="466.61 1031.69 526.61 1071.69 541.61 971.69 466.61 1031.69"/><polygon class="cls-75" points="466.61 306.69 511.61 371.69 576.61 281.69 466.61 306.69"/><polygon class="cls-43" points="546.61 216.69 466.61 306.69 576.61 281.69 546.61 216.69"/><polygon class="cls-76" points="481.61 136.69 546.61 216.69 566.61 136.69 481.61 136.69"/><polygon class="cls-77" points="566.61 136.69 546.61 216.69 586.61 191.69 566.61 136.69"/><polygon class="cls-78" points="511.61 446.69 486.61 536.69 541.61 561.69 511.61 446.69"/><polygon class="cls-79" points="541.61 971.69 526.61 1071.69 597.61 1081.69 541.61 971.69"/><polygon class="cls-30" points="498.61 1.69 566.61 136.69 597.61 1.69 498.61 1.69"/><polygon class="cls-68" points="546.61 216.69 576.61 281.69 586.61 191.69 546.61 216.69"/><polygon class="cls-38" points="498.61 1.69 481.61 136.69 566.61 136.69 498.61 1.69"/><polygon class="cls-80" points="416.61 836.69 421.61 931.69 541.61 971.69 416.61 836.69"/><polygon class="cls-81" points="376.61 671.69 416.61 836.69 536.61 616.69 376.61 671.69"/><polygon class="cls-10" points="511.61 371.69 516.61 396.69 641.61 381.69 511.61 371.69"/><polygon class="cls-82" points="576.61 281.69 511.61 371.69 641.61 381.69 576.61 281.69"/><polygon class="cls-83" points="516.61 396.69 516.61 411.69 641.61 381.69 516.61 396.69"/><polygon class="cls-16" points="416.61 836.69 541.61 971.69 651.61 911.69 416.61 836.69"/><polygon class="cls-84" points="516.61 411.69 511.61 446.69 641.61 381.69 516.61 411.69"/><polygon class="cls-85" points="526.61 1071.69 498.61 1081.69 597.61 1081.69 526.61 1071.69"/><polygon class="cls-22" points="566.61 136.69 586.61 191.69 676.61 131.69 566.61 136.69"/><polygon class="cls-86" points="676.61 131.69 586.61 191.69 686.61 181.69 676.61 131.69"/><polygon class="cls-87" points="681.61 1066.69 597.61 1081.69 686.61 1076.69 681.61 1066.69"/><polygon class="cls-38" points="597.61 1.69 566.61 136.69 676.61 131.69 597.61 1.69"/><polygon class="cls-88" points="541.61 561.69 536.61 616.69 711.61 601.69 541.61 561.69"/><polygon class="cls-89" points="676.61 131.69 686.61 181.69 701.61 186.69 676.61 131.69"/><polygon class="cls-30" points="597.61 1.69 676.61 131.69 697.61 1.69 597.61 1.69"/><polygon class="cls-87" points="681.61 1066.69 686.61 1076.69 697.61 1081.69 681.61 1066.69"/><polygon class="cls-90" points="586.61 191.69 576.61 281.69 686.61 181.69 586.61 191.69"/><polygon class="cls-79" points="541.61 971.69 597.61 1081.69 681.61 1066.69 541.61 971.69"/><polygon class="cls-91" points="651.61 911.69 541.61 971.69 681.61 1066.69 651.61 911.69"/><polygon class="cls-92" points="536.61 616.69 416.61 836.69 651.61 911.69 536.61 616.69"/><polygon class="cls-20" points="511.61 446.69 541.61 561.69 641.61 381.69 511.61 446.69"/><polygon class="cls-78" points="641.61 381.69 541.61 561.69 711.61 601.69 641.61 381.69"/><polygon class="cls-72" points="686.61 181.69 576.61 281.69 701.61 186.69 686.61 181.69"/><polygon class="cls-93" points="686.61 1076.69 597.61 1081.69 697.61 1081.69 686.61 1076.69"/><polygon class="cls-92" points="536.61 616.69 651.61 911.69 751.61 831.69 536.61 616.69"/><polygon class="cls-94" points="751.61 831.69 651.61 911.69 771.61 866.69 751.61 831.69"/><polygon class="cls-95" points="681.61 1066.69 697.61 1081.69 776.61 1051.69 681.61 1066.69"/><polygon class="cls-96" points="576.61 281.69 641.61 381.69 701.61 186.69 576.61 281.69"/><polygon class="cls-97" points="641.61 381.69 711.61 601.69 781.61 536.69 641.61 381.69"/><polygon class="cls-98" points="676.61 131.69 701.61 186.69 776.61 176.69 676.61 131.69"/><polygon class="cls-75" points="701.61 186.69 641.61 381.69 766.61 351.69 701.61 186.69"/><polygon class="cls-99" points="711.61 601.69 536.61 616.69 751.61 831.69 711.61 601.69"/><polygon class="cls-100" points="776.61 1051.69 697.61 1081.69 796.61 1081.69 776.61 1051.69"/><polygon class="cls-101" points="711.61 601.69 751.61 831.69 791.61 641.69 711.61 601.69"/><polygon class="cls-102" points="781.61 536.69 711.61 601.69 791.61 641.69 781.61 536.69"/><polygon class="cls-103" points="651.61 911.69 681.61 1066.69 776.61 1051.69 651.61 911.69"/><polygon class="cls-104" points="701.61 186.69 766.61 351.69 826.61 221.69 701.61 186.69"/><polygon class="cls-105" points="776.61 176.69 701.61 186.69 826.61 221.69 776.61 176.69"/><polygon class="cls-30" points="697.61 1.69 676.61 131.69 796.61 1.69 697.61 1.69"/><polygon class="cls-106" points="676.61 131.69 776.61 176.69 796.61 1.69 676.61 131.69"/><polygon class="cls-107" points="766.61 351.69 641.61 381.69 781.61 536.69 766.61 351.69"/><polygon class="cls-108" points="771.61 866.69 651.61 911.69 776.61 1051.69 771.61 866.69"/><polygon class="cls-109" points="791.61 641.69 751.61 831.69 851.61 721.69 791.61 641.69"/><polygon class="cls-110" points="751.61 831.69 771.61 866.69 871.61 876.69 751.61 831.69"/><polygon class="cls-75" points="826.61 221.69 766.61 351.69 866.61 361.69 826.61 221.69"/><polygon class="cls-111" points="766.61 351.69 781.61 536.69 866.61 361.69 766.61 351.69"/><polygon class="cls-2" points="866.61 361.69 781.61 536.69 911.61 411.69 866.61 361.69"/><polygon class="cls-112" points="781.61 536.69 906.61 501.69 911.61 411.69 781.61 536.69"/><polygon class="cls-100" points="776.61 1051.69 796.61 1081.69 896.61 1081.69 776.61 1051.69"/><polygon class="cls-113" points="851.61 721.69 751.61 831.69 871.61 876.69 851.61 721.69"/><polygon class="cls-114" points="771.61 866.69 776.61 1051.69 871.61 876.69 771.61 866.69"/><polygon class="cls-115" points="906.61 501.69 781.61 536.69 921.61 541.69 906.61 501.69"/><polygon class="cls-116" points="921.61 871.69 871.61 876.69 931.61 891.69 921.61 871.69"/><polygon class="cls-117" points="781.61 536.69 791.61 641.69 921.61 541.69 781.61 536.69"/><polygon class="cls-118" points="921.61 541.69 791.61 641.69 936.61 571.69 921.61 541.69"/><polygon class="cls-119" points="776.61 1051.69 896.61 1081.69 946.61 1021.69 776.61 1051.69"/><polygon class="cls-120" points="791.61 641.69 851.61 721.69 946.61 671.69 791.61 641.69"/><polygon class="cls-64" points="911.61 411.69 906.61 501.69 951.61 431.69 911.61 411.69"/><polygon class="cls-121" points="931.61 891.69 871.61 876.69 946.61 1021.69 931.61 891.69"/><polygon class="cls-122" points="871.61 876.69 776.61 1051.69 946.61 1021.69 871.61 876.69"/><polygon class="cls-123" points="936.61 571.69 791.61 641.69 946.61 671.69 936.61 571.69"/><polygon class="cls-124" points="851.61 721.69 871.61 876.69 921.61 871.69 851.61 721.69"/><polygon class="cls-125" points="796.61 1.69 776.61 176.69 896.61 1.69 796.61 1.69"/><polygon class="cls-126" points="946.61 671.69 851.61 721.69 971.61 711.69 946.61 671.69"/><polygon class="cls-127" points="776.61 176.69 826.61 221.69 896.61 1.69 776.61 176.69"/><polygon class="cls-12" points="946.61 1021.69 896.61 1081.69 995.61 1081.69 946.61 1021.69"/><polygon class="cls-128" points="826.61 221.69 866.61 361.69 1001.61 286.69 826.61 221.69"/><polygon class="cls-129" points="946.61 671.69 971.61 711.69 1001.61 656.69 946.61 671.69"/><polygon class="cls-130" points="851.61 721.69 921.61 871.69 971.61 711.69 851.61 721.69"/><polygon class="cls-9" points="866.61 361.69 911.61 411.69 1001.61 286.69 866.61 361.69"/><polygon class="cls-131" points="936.61 571.69 946.61 671.69 1001.61 656.69 936.61 571.69"/><polygon class="cls-132" points="921.61 871.69 931.61 891.69 1021.61 826.69 921.61 871.69"/><polygon class="cls-133" points="971.61 711.69 921.61 871.69 1021.61 826.69 971.61 711.69"/><polygon class="cls-134" points="931.61 891.69 946.61 1021.69 1011.61 1006.69 931.61 891.69"/><polygon class="cls-135" points="946.61 1021.69 995.61 1081.69 1011.61 1006.69 946.61 1021.69"/><polygon class="cls-136" points="911.61 411.69 951.61 431.69 1001.61 286.69 911.61 411.69"/><polygon class="cls-67" points="906.61 501.69 921.61 541.69 951.61 431.69 906.61 501.69"/><polygon class="cls-135" points="1011.61 1006.69 995.61 1081.69 1051.61 1021.69 1011.61 1006.69"/><polygon class="cls-137" points="1001.61 656.69 971.61 711.69 1086.61 691.69 1001.61 656.69"/><polygon class="cls-138" points="896.61 1.69 826.61 221.69 995.61 1.69 896.61 1.69"/><polygon class="cls-12" points="1051.61 1021.69 995.61 1081.69 1094.61 1081.69 1051.61 1021.69"/><polygon class="cls-115" points="921.61 541.69 936.61 571.69 1096.61 471.69 921.61 541.69"/><polygon class="cls-139" points="951.61 431.69 921.61 541.69 1096.61 471.69 951.61 431.69"/><polygon class="cls-140" points="931.61 891.69 1011.61 1006.69 1021.61 826.69 931.61 891.69"/><polygon class="cls-141" points="995.61 1.69 826.61 221.69 1001.61 286.69 995.61 1.69"/><polygon class="cls-118" points="936.61 571.69 1001.61 656.69 1111.61 516.69 936.61 571.69"/><polygon class="cls-142" points="1096.61 471.69 936.61 571.69 1111.61 516.69 1096.61 471.69"/><polygon class="cls-143" points="971.61 711.69 1021.61 826.69 1086.61 691.69 971.61 711.69"/><polygon class="cls-144" points="1086.61 691.69 1021.61 826.69 1131.61 771.69 1086.61 691.69"/><polygon class="cls-145" points="995.61 1.69 1001.61 286.69 1146.61 136.69 995.61 1.69"/><polygon class="cls-30" points="1094.61 1.69 995.61 1.69 1146.61 136.69 1094.61 1.69"/><polygon class="cls-146" points="1001.61 286.69 1096.61 471.69 1141.61 336.69 1001.61 286.69"/><polygon class="cls-147" points="1131.61 686.69 1086.61 691.69 1131.61 771.69 1131.61 686.69"/><polygon class="cls-83" points="1001.61 286.69 951.61 431.69 1096.61 471.69 1001.61 286.69"/><polygon class="cls-83" points="1141.61 336.69 1096.61 471.69 1161.61 376.69 1141.61 336.69"/><polygon class="cls-148" points="1131.61 771.69 1021.61 826.69 1161.61 861.69 1131.61 771.69"/><polygon class="cls-63" points="1001.61 656.69 1086.61 691.69 1111.61 516.69 1001.61 656.69"/><polygon class="cls-149" points="1021.61 826.69 1011.61 1006.69 1051.61 1021.69 1021.61 826.69"/><polygon class="cls-107" points="1161.61 376.69 1096.61 471.69 1176.61 416.69 1161.61 376.69"/><polygon class="cls-150" points="1021.61 826.69 1051.61 1021.69 1161.61 861.69 1021.61 826.69"/><polygon class="cls-151" points="1111.61 516.69 1086.61 691.69 1131.61 686.69 1111.61 516.69"/><polygon class="cls-12" points="1051.61 1021.69 1094.61 1081.69 1194.61 1081.69 1051.61 1021.69"/><polygon class="cls-30" points="1094.61 1.69 1146.61 136.69 1194.61 1.69 1094.61 1.69"/><polygon class="cls-152" points="1096.61 471.69 1111.61 516.69 1176.61 416.69 1096.61 471.69"/><polygon class="cls-104" points="1001.61 286.69 1141.61 336.69 1146.61 136.69 1001.61 286.69"/><polygon class="cls-153" points="1131.61 686.69 1131.61 771.69 1241.61 691.69 1131.61 686.69"/><polygon class="cls-154" points="1161.61 861.69 1051.61 1021.69 1194.61 1081.69 1161.61 861.69"/><polygon class="cls-139" points="1176.61 416.69 1111.61 516.69 1276.61 506.69 1176.61 416.69"/><polygon class="cls-155" points="1111.61 516.69 1131.61 686.69 1281.61 616.69 1111.61 516.69"/><polygon class="cls-156" points="1131.61 686.69 1241.61 691.69 1281.61 616.69 1131.61 686.69"/><polygon class="cls-157" points="1161.61 861.69 1194.61 1081.69 1271.61 926.69 1161.61 861.69"/><polygon class="cls-158" points="1276.61 506.69 1111.61 516.69 1281.61 616.69 1276.61 506.69"/><polygon class="cls-159" points="1276.61 506.69 1281.61 616.69 1296.61 551.69 1276.61 506.69"/><polygon class="cls-103" points="1271.61 926.69 1194.61 1081.69 1301.61 1021.69 1271.61 926.69"/><polygon class="cls-12" points="1194.61 1081.69 1293.61 1081.69 1301.61 1021.69 1194.61 1081.69"/><polygon class="cls-115" points="1276.61 506.69 1296.61 551.69 1316.61 516.69 1276.61 506.69"/><polygon class="cls-136" points="1161.61 376.69 1176.61 416.69 1326.61 336.69 1161.61 376.69"/><polygon class="cls-9" points="1141.61 336.69 1161.61 376.69 1326.61 336.69 1141.61 336.69"/><polygon class="cls-160" points="1131.61 771.69 1161.61 861.69 1241.61 691.69 1131.61 771.69"/><polygon class="cls-64" points="1176.61 416.69 1276.61 506.69 1341.61 406.69 1176.61 416.69"/><polygon class="cls-161" points="1326.61 336.69 1176.61 416.69 1341.61 406.69 1326.61 336.69"/><polygon class="cls-30" points="1194.61 1.69 1146.61 136.69 1293.61 1.69 1194.61 1.69"/><polygon class="cls-162" points="1276.61 506.69 1316.61 516.69 1341.61 406.69 1276.61 506.69"/><polygon class="cls-43" points="1146.61 136.69 1141.61 336.69 1326.61 336.69 1146.61 136.69"/><polygon class="cls-163" points="1241.61 691.69 1161.61 861.69 1376.61 766.69 1241.61 691.69"/><polygon class="cls-164" points="1161.61 861.69 1271.61 926.69 1376.61 766.69 1161.61 861.69"/><polygon class="cls-115" points="1316.61 516.69 1296.61 551.69 1361.61 516.69 1316.61 516.69"/><polygon class="cls-154" points="1271.61 926.69 1301.61 1021.69 1391.61 976.69 1271.61 926.69"/><polygon class="cls-165" points="1301.61 1021.69 1293.61 1081.69 1393.61 1081.69 1301.61 1021.69"/><polygon class="cls-166" points="1376.61 766.69 1271.61 926.69 1381.61 886.69 1376.61 766.69"/><polygon class="cls-167" points="1341.61 406.69 1316.61 516.69 1361.61 516.69 1341.61 406.69"/><polygon class="cls-16" points="1381.61 886.69 1391.61 976.69 1401.61 891.69 1381.61 886.69"/><polygon class="cls-127" points="1293.61 1.69 1146.61 136.69 1401.61 261.69 1293.61 1.69"/><polygon class="cls-168" points="1146.61 136.69 1326.61 336.69 1401.61 261.69 1146.61 136.69"/><polygon class="cls-169" points="1391.61 976.69 1301.61 1021.69 1393.61 1081.69 1391.61 976.69"/><polygon class="cls-170" points="1381.61 886.69 1271.61 926.69 1391.61 976.69 1381.61 886.69"/><polygon class="cls-171" points="1281.61 616.69 1241.61 691.69 1376.61 766.69 1281.61 616.69"/><polygon class="cls-159" points="1296.61 551.69 1281.61 616.69 1361.61 516.69 1296.61 551.69"/><polygon class="cls-88" points="1361.61 516.69 1281.61 616.69 1456.61 641.69 1361.61 516.69"/><polygon class="cls-172" points="1281.61 616.69 1376.61 766.69 1456.61 641.69 1281.61 616.69"/><polygon class="cls-173" points="1341.61 406.69 1361.61 516.69 1451.61 416.69 1341.61 406.69"/><polygon class="cls-174" points="1361.61 516.69 1456.61 641.69 1466.61 626.69 1361.61 516.69"/><polygon class="cls-10" points="1326.61 336.69 1341.61 406.69 1451.61 416.69 1326.61 336.69"/><polygon class="cls-175" points="1376.61 766.69 1381.61 886.69 1401.61 891.69 1376.61 766.69"/><polygon class="cls-23" points="1393.61 1.69 1293.61 1.69 1401.61 261.69 1393.61 1.69"/><polygon class="cls-42" points="1391.61 976.69 1393.61 1081.69 1492.61 1081.69 1391.61 976.69"/><polygon class="cls-75" points="1401.61 261.69 1451.61 416.69 1481.61 271.69 1401.61 261.69"/><polygon class="cls-82" points="1401.61 261.69 1326.61 336.69 1451.61 416.69 1401.61 261.69"/><polygon class="cls-135" points="1391.61 976.69 1492.61 1081.69 1531.61 1031.69 1391.61 976.69"/><polygon class="cls-176" points="1466.61 626.69 1456.61 641.69 1551.61 731.69 1466.61 626.69"/><polygon class="cls-177" points="1456.61 641.69 1376.61 766.69 1551.61 731.69 1456.61 641.69"/><polygon class="cls-178" points="1376.61 766.69 1546.61 776.69 1551.61 731.69 1376.61 766.69"/><polygon class="cls-179" points="1376.61 766.69 1401.61 891.69 1546.61 776.69 1376.61 766.69"/><polygon class="cls-59" points="1401.61 891.69 1391.61 976.69 1531.61 1031.69 1401.61 891.69"/><polygon class="cls-23" points="1393.61 1.69 1401.61 261.69 1492.61 1.69 1393.61 1.69"/><polygon class="cls-142" points="1451.61 416.69 1361.61 516.69 1466.61 626.69 1451.61 416.69"/><polygon class="cls-180" points="1531.61 1031.69 1492.61 1081.69 1592.61 1081.69 1531.61 1031.69"/><polygon class="cls-176" points="1466.61 626.69 1551.61 731.69 1591.61 651.69 1466.61 626.69"/><polygon class="cls-181" points="1401.61 261.69 1481.61 271.69 1492.61 1.69 1401.61 261.69"/><polygon class="cls-13" points="1401.61 891.69 1531.61 1031.69 1596.61 936.69 1401.61 891.69"/><polygon class="cls-182" points="1531.61 1031.69 1592.61 1081.69 1596.61 1056.69 1531.61 1031.69"/><polygon class="cls-82" points="1481.61 271.69 1451.61 416.69 1601.61 346.69 1481.61 271.69"/><polygon class="cls-103" points="1531.61 1031.69 1596.61 1056.69 1596.61 936.69 1531.61 1031.69"/><polygon class="cls-183" points="1546.61 776.69 1401.61 891.69 1596.61 936.69 1546.61 776.69"/><polygon class="cls-184" points="1551.61 731.69 1591.61 726.69 1591.61 651.69 1551.61 731.69"/><polygon class="cls-185" points="1551.61 731.69 1546.61 776.69 1591.61 726.69 1551.61 731.69"/><polygon class="cls-186" points="1546.61 776.69 1596.61 936.69 1651.61 861.69 1546.61 776.69"/><polygon class="cls-180" points="1596.61 1056.69 1592.61 1081.69 1661.61 1056.69 1596.61 1056.69"/><polygon class="cls-187" points="1591.61 726.69 1546.61 776.69 1676.61 776.69 1591.61 726.69"/><polygon class="cls-188" points="1546.61 776.69 1651.61 861.69 1676.61 776.69 1546.61 776.69"/><polygon class="cls-189" points="1591.61 651.69 1591.61 726.69 1671.61 666.69 1591.61 651.69"/><polygon class="cls-190" points="1492.61 1.69 1481.61 271.69 1592.61 1.69 1492.61 1.69"/><polygon class="cls-191" points="1661.61 1056.69 1592.61 1081.69 1691.61 1081.69 1661.61 1056.69"/><polygon class="cls-192" points="1596.61 936.69 1596.61 1056.69 1661.61 1056.69 1596.61 936.69"/><polygon class="cls-1" points="1451.61 416.69 1466.61 626.69 1591.61 651.69 1451.61 416.69"/><polygon class="cls-193" points="1676.61 776.69 1651.61 861.69 1701.61 856.69 1676.61 776.69"/><polygon class="cls-194" points="1671.61 666.69 1591.61 726.69 1676.61 776.69 1671.61 666.69"/><polygon class="cls-16" points="1651.61 861.69 1596.61 936.69 1721.61 946.69 1651.61 861.69"/><polygon class="cls-71" points="1596.61 936.69 1661.61 1056.69 1721.61 946.69 1596.61 936.69"/><polygon class="cls-194" points="1671.61 666.69 1676.61 776.69 1731.61 736.69 1671.61 666.69"/><polygon class="cls-195" points="1451.61 416.69 1591.61 651.69 1601.61 346.69 1451.61 416.69"/><polygon class="cls-196" points="1591.61 651.69 1671.61 666.69 1736.61 566.69 1591.61 651.69"/><polygon class="cls-197" points="1701.61 856.69 1651.61 861.69 1721.61 946.69 1701.61 856.69"/><polygon class="cls-198" points="1736.61 566.69 1671.61 666.69 1746.61 626.69 1736.61 566.69"/><polygon class="cls-199" points="1601.61 346.69 1591.61 651.69 1736.61 566.69 1601.61 346.69"/><polygon class="cls-83" points="1686.61 346.69 1601.61 346.69 1771.61 501.69 1686.61 346.69"/><polygon class="cls-195" points="1601.61 346.69 1736.61 566.69 1771.61 501.69 1601.61 346.69"/><polygon class="cls-75" points="1601.61 346.69 1686.61 346.69 1776.61 261.69 1601.61 346.69"/><polygon class="cls-200" points="1671.61 666.69 1731.61 736.69 1746.61 626.69 1671.61 666.69"/><polygon class="cls-201" points="1661.61 1056.69 1691.61 1081.69 1721.61 946.69 1661.61 1056.69"/><polygon class="cls-77" points="1592.61 1.69 1481.61 271.69 1776.61 261.69 1592.61 1.69"/><polygon class="cls-128" points="1481.61 271.69 1601.61 346.69 1776.61 261.69 1481.61 271.69"/><polygon class="cls-202" points="1731.61 736.69 1701.61 856.69 1801.61 771.69 1731.61 736.69"/><polygon class="cls-135" points="1721.61 946.69 1691.61 1081.69 1791.61 1081.69 1721.61 946.69"/><polygon class="cls-23" points="1691.61 1.69 1592.61 1.69 1776.61 261.69 1691.61 1.69"/><polygon class="cls-202" points="1676.61 776.69 1701.61 856.69 1731.61 736.69 1676.61 776.69"/><polygon class="cls-203" points="1701.61 856.69 1721.61 946.69 1846.61 831.69 1701.61 856.69"/><polygon class="cls-204" points="1801.61 771.69 1701.61 856.69 1846.61 831.69 1801.61 771.69"/><polygon class="cls-205" points="1721.61 946.69 1791.61 1081.69 1871.61 986.69 1721.61 946.69"/><polygon class="cls-206" points="1746.61 626.69 1731.61 736.69 1801.61 771.69 1746.61 626.69"/><polygon class="cls-23" points="1691.61 1.69 1776.61 261.69 1791.61 1.69 1691.61 1.69"/><polygon class="cls-207" points="1771.61 501.69 1896.61 501.69 1896.61 476.69 1771.61 501.69"/><polygon class="cls-208" points="1871.61 986.69 1791.61 1081.69 1890.61 1081.69 1871.61 986.69"/><polygon class="cls-16" points="1846.61 831.69 1721.61 946.69 1871.61 986.69 1846.61 831.69"/><polygon class="cls-209" points="1890.61 1081.69 1916.61 1076.69 1921.61 995.69 1890.61 1081.69"/><polygon class="cls-29" points="1871.61 986.69 1890.61 1081.69 1921.61 995.69 1871.61 986.69"/><polygon class="cls-210" points="1871.61 986.69 1921.61 995.69 1921.61 896.69 1871.61 986.69"/><polygon class="cls-211" points="1846.61 831.69 1871.61 986.69 1921.61 896.69 1846.61 831.69"/><polygon class="cls-104" points="1921.61 199.69 1776.61 261.69 1921.61 299.69 1921.61 199.69"/><polygon class="cls-82" points="1776.61 261.69 1686.61 346.69 1921.61 398.69 1776.61 261.69"/><polygon class="cls-212" points="1686.61 346.69 1771.61 501.69 1921.61 398.69 1686.61 346.69"/><polygon class="cls-20" points="1771.61 501.69 1896.61 476.69 1921.61 398.69 1771.61 501.69"/><polygon class="cls-75" points="1921.61 299.69 1776.61 261.69 1921.61 398.69 1921.61 299.69"/><polygon class="cls-20" points="1921.61 398.69 1896.61 476.69 1921.61 498.69 1921.61 398.69"/><polygon class="cls-213" points="1896.61 476.69 1896.61 501.69 1921.61 498.69 1896.61 476.69"/><polygon class="cls-214" points="1896.61 501.69 1771.61 501.69 1921.61 597.69 1896.61 501.69"/><polygon class="cls-52" points="1771.61 501.69 1736.61 566.69 1921.61 597.69 1771.61 501.69"/><polygon class="cls-215" points="1736.61 566.69 1746.61 626.69 1921.61 597.69 1736.61 566.69"/><polygon class="cls-214" points="1921.61 498.69 1896.61 501.69 1921.61 597.69 1921.61 498.69"/><polygon class="cls-216" points="1921.61 597.69 1746.61 626.69 1921.61 697.69 1921.61 597.69"/><polygon class="cls-217" points="1746.61 626.69 1801.61 771.69 1921.61 697.69 1746.61 626.69"/><polygon class="cls-218" points="1921.61 697.69 1801.61 771.69 1921.61 796.69 1921.61 697.69"/><polygon class="cls-219" points="1801.61 771.69 1846.61 831.69 1921.61 796.69 1801.61 771.69"/><polygon class="cls-220" points="1846.61 831.69 1921.61 896.69 1921.61 796.69 1846.61 831.69"/><polygon class="cls-93" points="1916.61 1076.69 1890.61 1081.69 1921.61 1081.69 1916.61 1076.69"/><polygon class="cls-209" points="1921.61 995.69 1916.61 1076.69 1921.61 1081.69 1921.61 995.69"/><polygon class="cls-221" points="1890.61 1.69 1791.61 1.69 1921.61 100.69 1890.61 1.69"/><polygon class="cls-44" points="1776.61 261.69 1921.61 199.69 1921.61 100.69 1776.61 261.69"/><polygon class="cls-222" points="1791.61 1.69 1776.61 261.69 1921.61 100.69 1791.61 1.69"/><polygon class="cls-221" points="1921.61 1.69 1890.61 1.69 1921.61 100.69 1921.61 1.69"/></svg>