<?xml version="1.0" encoding="utf-8"?>
<!-- Generator: Adobe Illustrator 24.1.2, SVG Export Plug-In . SVG Version: 6.00 Build 0)  -->
<svg version="1.1" id="Layer_1" xmlns="http://www.w3.org/2000/svg" xmlns:xlink="http://www.w3.org/1999/xlink" x="0px" y="0px"
	 viewBox="0 0 1920 1080" enable-background="new 0 0 1920 1080" xml:space="preserve">
<polygon fill="#265997" stroke="#265997" points="0,497 0,596 15,515 "/>
<polygon fill="#2A457B" stroke="#2A457B" points="0,397 0,497 40,410 "/>
<polygon fill="#3194CF" stroke="#3194CF" points="0,895 0,994 65,910 "/>
<polygon fill="#3591C7" stroke="#3591C7" points="60,890 0,895 65,910 "/>
<polygon fill="#37A8DB" stroke="#37A8DB" points="0,994 0,1080 80,1025 "/>
<polygon fill="#419BCE" stroke="#419BCE" points="0,696 0,795 60,795 "/>
<polygon fill="#49A0D2" stroke="#49A0D2" points="0,795 60,890 60,795 "/>
<polygon fill="#459FD2" stroke="#459FD2" points="0,795 0,895 60,890 "/>
<polygon fill="#263F6E" stroke="#263F6E" points="0,298 0,397 90,345 "/>
<polygon fill="#274372" stroke="#274372" points="0,397 40,410 90,345 "/>
<polygon fill="#2860A2" stroke="#2860A2" points="15,515 0,596 80,525 "/>
<polygon fill="#27A5DF" stroke="#27A5DF" points="80,1025 0,1080 99,1080 "/>
<polygon fill="#3098D0" stroke="#3098D0" points="65,910 0,994 105,945 "/>
<polygon fill="#349ED6" stroke="#349ED6" points="0,994 80,1025 105,945 "/>
<polygon fill="#25477D" stroke="#25477D" points="0,497 15,515 40,410 "/>
<polygon fill="#3896CD" stroke="#3896CD" points="60,890 65,910 115,915 "/>
<polygon fill="#3A98CD" stroke="#3A98CD" points="65,910 105,945 115,915 "/>
<polygon fill="#1B2945" stroke="#1B2945" points="0,0 0,99 99,0 "/>
<polygon fill="#29508A" stroke="#29508A" points="40,410 15,515 80,525 "/>
<polygon fill="#27477E" stroke="#27477E" points="40,410 80,525 155,455 "/>
<polygon fill="#284375" stroke="#284375" points="90,345 40,410 155,455 "/>
<polygon fill="#223254" stroke="#223254" points="0,99 0,198 155,160 "/>
<polygon fill="#1F2D4B" stroke="#1F2D4B" points="99,0 0,99 155,160 "/>
<polygon fill="#74B9DF" stroke="#74B9DF" points="60,795 60,890 115,915 "/>
<polygon fill="#253B64" stroke="#253B64" points="0,198 0,298 90,345 "/>
<polygon fill="#1C6EAF" stroke="#1C6EAF" points="0,596 0,630 80,525 "/>
<polygon fill="#506080" stroke="#506080" points="0,198 90,345 155,160 "/>
<polygon fill="#8ECDE7" stroke="#8ECDE7" points="80,1025 99,1080 198,1080 "/>
<polygon fill="#38A4DB" stroke="#38A4DB" points="105,945 80,1025 198,1080 "/>
<polygon fill="#1C2A46" stroke="#1C2A46" points="99,0 155,160 198,0 "/>
<polygon fill="#49A0D4" stroke="#49A0D4" points="60,795 115,915 195,895 "/>
<polygon fill="#479ED2" stroke="#479ED2" points="195,760 60,795 195,895 "/>
<polygon fill="#3896CD" stroke="#3896CD" points="115,915 105,945 195,895 "/>
<polygon fill="#267FB8" stroke="#267FB8" points="0,630 0,696 195,760 "/>
<polygon fill="#3D9BD0" stroke="#3D9BD0" points="0,696 60,795 195,760 "/>
<polygon fill="#1D78B6" stroke="#1D78B6" points="80,525 0,630 245,685 "/>
<polygon fill="#257BB5" stroke="#257BB5" points="0,630 195,760 245,685 "/>
<polygon fill="#49A0D2" stroke="#49A0D2" points="195,760 195,895 275,855 "/>
<polygon fill="#349CD4" stroke="#349CD4" points="195,895 105,945 198,1080 "/>
<polygon fill="#202E4C" stroke="#202E4C" points="198,0 155,160 305,120 "/>
<polygon fill="#1C2A48" stroke="#1C2A48" points="298,0 198,0 305,120 "/>
<polygon fill="#2861A0" stroke="#2861A0" points="155,455 80,525 245,685 "/>
<polygon fill="#339DD5" stroke="#339DD5" points="195,895 198,1080 330,970 "/>
<polygon fill="#27A1DB" stroke="#27A1DB" points="198,1080 298,1080 330,970 "/>
<polygon fill="#253B63" stroke="#253B63" points="155,160 90,345 340,275 "/>
<polygon fill="#213557" stroke="#213557" points="305,120 155,160 340,275 "/>
<polygon fill="#27406F" stroke="#27406F" points="90,345 155,455 340,275 "/>
<polygon fill="#7EBBE8" stroke="#7EBBE8" points="195,760 275,855 335,825 "/>
<polygon fill="#60A5CD" stroke="#60A5CD" points="315,695 195,760 335,825 "/>
<polygon fill="#3896CD" stroke="#3896CD" points="275,855 195,895 330,970 "/>
<polygon fill="#358DC2" stroke="#358DC2" points="245,685 195,760 315,695 "/>
<polygon fill="#3896CD" stroke="#3896CD" points="275,855 330,970 380,935 "/>
<polygon fill="#4AA1D5" stroke="#4AA1D5" points="335,825 275,855 380,935 "/>
<polygon fill="#7DB7E3" stroke="#7DB7E3" points="315,695 335,825 365,805 "/>
<polygon fill="#54A4D6" stroke="#54A4D6" points="365,805 335,825 400,845 "/>
<polygon fill="#49A0D4" stroke="#49A0D4" points="335,825 380,935 400,845 "/>
<polygon fill="#285897" stroke="#285897" points="155,455 245,685 400,490 "/>
<polygon fill="#27A1DB" stroke="#27A1DB" points="330,970 298,1080 397,1080 "/>
<polygon fill="#3894CA" stroke="#3894CA" points="400,845 380,935 420,930 "/>
<polygon fill="#54A4D6" stroke="#54A4D6" points="365,805 400,845 415,835 "/>
<polygon fill="#284375" stroke="#284375" points="340,275 155,455 400,490 "/>
<polygon fill="#2086C0" stroke="#2086C0" points="245,685 375,670 400,490 "/>
<polygon fill="#1C2A48" stroke="#1C2A48" points="298,0 305,120 397,0 "/>
<polygon fill="#56A5D7" stroke="#56A5D7" points="315,695 365,805 375,670 "/>
<polygon fill="#267DB9" stroke="#267DB9" points="245,685 315,695 375,670 "/>
<polygon fill="#339DD5" stroke="#339DD5" points="380,935 330,970 450,1045 "/>
<polygon fill="#29A1D7" stroke="#29A1D7" points="330,970 397,1080 450,1045 "/>
<polygon fill="#269AD2" stroke="#269AD2" points="420,930 450,1045 465,1030 "/>
<polygon fill="#339BD3" stroke="#339BD3" points="420,930 380,935 450,1045 "/>
<polygon fill="#1D2E51" stroke="#1D2E51" points="305,120 340,275 480,135 "/>
<polygon fill="#1F2D4B" stroke="#1F2D4B" points="397,0 305,120 480,135 "/>
<polygon fill="#27406F" stroke="#27406F" points="340,275 400,490 465,305 "/>
<polygon fill="#4AA1D5" stroke="#4AA1D5" points="415,835 400,845 420,930 "/>
<polygon fill="#26A4DE" stroke="#26A4DE" points="465,1030 450,1045 497,1080 "/>
<polygon fill="#26A7E0" stroke="#26A7E0" points="450,1045 397,1080 497,1080 "/>
<polygon fill="#275A98" stroke="#275A98" points="400,490 375,670 485,535 "/>
<polygon fill="#274372" stroke="#274372" points="465,305 400,490 510,370 "/>
<polygon fill="#28467B" stroke="#28467B" points="400,490 510,445 515,410 "/>
<polygon fill="#294679" stroke="#294679" points="515,395 400,490 515,410 "/>
<polygon fill="#294478" stroke="#294478" points="510,370 400,490 515,395 "/>
<polygon fill="#294981" stroke="#294981" points="400,490 485,535 510,445 "/>
<polygon fill="#24395F" stroke="#24395F" points="340,275 465,305 480,135 "/>
<polygon fill="#1B2945" stroke="#1B2945" points="397,0 480,135 497,0 "/>
<polygon fill="#8FC1E3" stroke="#8FC1E3" points="375,670 365,805 415,835 "/>
<polygon fill="#2168A7" stroke="#2168A7" points="485,535 375,670 535,615 "/>
<polygon fill="#26A4DE" stroke="#26A4DE" points="465,1030 497,1080 525,1070 "/>
<polygon fill="#329CD4" stroke="#329CD4" points="420,930 465,1030 540,970 "/>
<polygon fill="#23365B" stroke="#23365B" points="480,135 465,305 545,215 "/>
<polygon fill="#245795" stroke="#245795" points="485,535 535,615 540,560 "/>
<polygon fill="#289ED7" stroke="#289ED7" points="465,1030 525,1070 540,970 "/>
<polygon fill="#263E69" stroke="#263E69" points="465,305 510,370 575,280 "/>
<polygon fill="#253B63" stroke="#253B63" points="545,215 465,305 575,280 "/>
<polygon fill="#1B2545" stroke="#1B2545" points="480,135 545,215 565,135 "/>
<polygon fill="#213255" stroke="#213255" points="565,135 545,215 585,190 "/>
<polygon fill="#264A85" stroke="#264A85" points="510,445 485,535 540,560 "/>
<polygon fill="#27A1D9" stroke="#27A1D9" points="540,970 525,1070 596,1080 "/>
<polygon fill="#1C2A46" stroke="#1C2A46" points="497,0 565,135 596,0 "/>
<polygon fill="#24395F" stroke="#24395F" points="545,215 575,280 585,190 "/>
<polygon fill="#202E4C" stroke="#202E4C" points="497,0 480,135 565,135 "/>
<polygon fill="#3795CA" stroke="#3795CA" points="415,835 420,930 540,970 "/>
<polygon fill="#43A1D4" stroke="#43A1D4" points="375,670 415,835 535,615 "/>
<polygon fill="#274372" stroke="#274372" points="510,370 515,395 640,380 "/>
<polygon fill="#26406C" stroke="#26406C" points="575,280 510,370 640,380 "/>
<polygon fill="#274274" stroke="#274274" points="515,395 515,410 640,380 "/>
<polygon fill="#3896CD" stroke="#3896CD" points="415,835 540,970 650,910 "/>
<polygon fill="#294476" stroke="#294476" points="515,410 510,445 640,380 "/>
<polygon fill="#24A8E2" stroke="#24A8E2" points="525,1070 497,1080 596,1080 "/>
<polygon fill="#223254" stroke="#223254" points="565,135 585,190 675,130 "/>
<polygon fill="#FFFAFF" stroke="#FFFAFF" points="675,130 585,190 685,180 "/>
<polygon fill="#27A8E1" stroke="#27A8E1" points="680,1065 596,1080 685,1075 "/>
<polygon fill="#202E4C" stroke="#202E4C" points="596,0 565,135 675,130 "/>
<polygon fill="#285B9B" stroke="#285B9B" points="540,560 535,615 710,600 "/>
<polygon fill="#213254" stroke="#213254" points="675,130 685,180 700,185 "/>
<polygon fill="#1C2A46" stroke="#1C2A46" points="596,0 675,130 696,0 "/>
<polygon fill="#27A8E1" stroke="#27A8E1" points="680,1065 685,1075 696,1080 "/>
<polygon fill="#22375B" stroke="#22375B" points="585,190 575,280 685,180 "/>
<polygon fill="#27A1D9" stroke="#27A1D9" points="540,970 596,1080 680,1065 "/>
<polygon fill="#2693CD" stroke="#2693CD" points="650,910 540,970 680,1065 "/>
<polygon fill="#98C1E4" stroke="#98C1E4" points="535,615 415,835 650,910 "/>
<polygon fill="#27477E" stroke="#27477E" points="510,445 540,560 640,380 "/>
<polygon fill="#264A85" stroke="#264A85" points="640,380 540,560 710,600 "/>
<polygon fill="#23365B" stroke="#23365B" points="685,180 575,280 700,185 "/>
<polygon fill="#24AAE1" stroke="#24AAE1" points="685,1075 596,1080 696,1080 "/>
<polygon fill="#98C1E4" stroke="#98C1E4" points="535,615 650,910 750,830 "/>
<polygon fill="#3B95CA" stroke="#3B95CA" points="750,830 650,910 770,865 "/>
<polygon fill="#29A7E1" stroke="#29A7E1" points="680,1065 696,1080 775,1050 "/>
<polygon fill="#263C67" stroke="#263C67" points="575,280 640,380 700,185 "/>
<polygon fill="#274B84" stroke="#274B84" points="640,380 710,600 780,535 "/>
<polygon fill="#203051" stroke="#203051" points="675,130 700,185 775,175 "/>
<polygon fill="#263E69" stroke="#263E69" points="700,185 640,380 765,350 "/>
<polygon fill="#2A65A2" stroke="#2A65A2" points="710,600 535,615 750,830 "/>
<polygon fill="#24A8E0" stroke="#24A8E0" points="775,1050 696,1080 795,1080 "/>
<polygon fill="#275A98" stroke="#275A98" points="710,595 750,825 790,635 "/>
<polygon fill="#285192" stroke="#285192" points="780,535 710,600 790,640 "/>
<polygon fill="#279BD3" stroke="#279BD3" points="650,910 680,1065 775,1050 "/>
<polygon fill="#253962" stroke="#253962" points="700,185 765,350 825,220 "/>
<polygon fill="#223658" stroke="#223658" points="775,175 700,185 825,220 "/>
<polygon fill="#1C2A46" stroke="#1C2A46" points="696,0 675,130 795,0 "/>
<polygon fill="#212F4D" stroke="#212F4D" points="675,130 775,175 795,0 "/>
<polygon fill="#284578" stroke="#284578" points="765,350 640,380 780,535 "/>
<polygon fill="#3A9AD1" stroke="#3A9AD1" points="770,865 650,910 775,1050 "/>
<polygon fill="#B3D2EF" stroke="#B3D2EF" points="790,640 750,830 850,720 "/>
<polygon fill="#499CCF" stroke="#499CCF" points="750,830 770,865 870,875 "/>
<polygon fill="#263E69" stroke="#263E69" points="825,220 765,350 865,360 "/>
<polygon fill="#27457A" stroke="#27457A" points="765,350 780,535 865,360 "/>
<polygon fill="#2A457B" stroke="#2A457B" points="865,360 780,535 910,410 "/>
<polygon fill="#97A5C3" stroke="#97A5C3" points="780,535 905,500 910,410 "/>
<polygon fill="#24A8E0" stroke="#24A8E0" points="775,1050 795,1080 895,1080 "/>
<polygon fill="#6EAAD7" stroke="#6EAAD7" points="850,720 750,830 870,875 "/>
<polygon fill="#3B99CE" stroke="#3B99CE" points="770,865 775,1050 870,875 "/>
<polygon fill="#274D87" stroke="#274D87" points="905,500 780,535 920,540 "/>
<polygon fill="#4D9DD1" stroke="#4D9DD1" points="920,870 870,875 930,890 "/>
<polygon fill="#284E8E" stroke="#284E8E" points="780,535 790,640 920,540 "/>
<polygon fill="#294F8F" stroke="#294F8F" points="920,540 790,640 935,570 "/>
<polygon fill="#28A3DD" stroke="#28A3DD" points="775,1050 895,1080 945,1020 "/>
<polygon fill="#4BA5D8" stroke="#4BA5D8" points="790,640 850,720 945,670 "/>
<polygon fill="#28467B" stroke="#28467B" points="910,410 905,500 950,430 "/>
<polygon fill="#3B99CD" stroke="#3B99CD" points="930,890 870,875 945,1020 "/>
<polygon fill="#2895CF" stroke="#2895CF" points="870,875 775,1050 945,1020 "/>
<polygon fill="#265594" stroke="#265594" points="935,570 790,640 945,670 "/>
<polygon fill="#75B1DE" stroke="#75B1DE" points="850,720 870,875 920,870 "/>
<polygon fill="#1D2B49" stroke="#1D2B49" points="795,0 775,175 895,0 "/>
<polygon fill="#72B7E7" stroke="#72B7E7" points="945,670 850,720 970,710 "/>
<polygon fill="#213151" stroke="#213151" points="775,175 825,220 895,0 "/>
<polygon fill="#27A5DF" stroke="#27A5DF" points="945,1020 895,1080 994,1080 "/>
<polygon fill="#263C65" stroke="#263C65" points="825,220 865,360 1000,285 "/>
<polygon fill="#349AD1" stroke="#349AD1" points="945,670 970,710 1000,655 "/>
<polygon fill="#BBD6F0" stroke="#BBD6F0" points="850,720 920,870 970,710 "/>
<polygon fill="#263F6E" stroke="#263F6E" points="865,360 910,410 1000,285 "/>
<polygon fill="#2B5A99" stroke="#2B5A99" points="935,570 945,670 1000,655 "/>
<polygon fill="#589ED1" stroke="#589ED1" points="920,870 930,890 1020,825 "/>
<polygon fill="#AACAE8" stroke="#AACAE8" points="970,710 920,870 1020,825 "/>
<polygon fill="#2793CB" stroke="#2793CB" points="930,890 945,1020 1010,1005 "/>
<polygon fill="#26A0D8" stroke="#26A0D8" points="945,1020 994,1080 1010,1005 "/>
<polygon fill="#264271" stroke="#264271" points="910,410 950,430 1000,285 "/>
<polygon fill="#294981" stroke="#294981" points="905,500 920,540 950,430 "/>
<polygon fill="#26A0D8" stroke="#26A0D8" points="1010,1005 994,1080 1050,1020 "/>
<polygon fill="#329DD0" stroke="#329DD0" points="1000,655 970,710 1085,690 "/>
<polygon fill="#1E2C4A" stroke="#1E2C4A" points="895,0 825,220 994,0 "/>
<polygon fill="#27A5DF" stroke="#27A5DF" points="1050,1020 994,1080 1093,1080 "/>
<polygon fill="#274D87" stroke="#274D87" points="920,540 935,570 1095,470 "/>
<polygon fill="#28487F" stroke="#28487F" points="950,430 920,540 1095,470 "/>
<polygon fill="#459ED1" stroke="#459ED1" points="930,890 1010,1005 1020,825 "/>
<polygon fill="#223355" stroke="#223355" points="994,0 825,220 1000,285 "/>
<polygon fill="#294F8F" stroke="#294F8F" points="935,570 1000,655 1110,515 "/>
<polygon fill="#284C87" stroke="#284C87" points="1095,470 935,570 1110,515 "/>
<polygon fill="#BCD7EF" stroke="#BCD7EF" points="970,710 1020,825 1085,690 "/>
<polygon fill="#C2DBF1" stroke="#C2DBF1" points="1085,690 1020,825 1130,770 "/>
<polygon fill="#213153" stroke="#213153" points="994,0 1000,285 1145,135 "/>
<polygon fill="#1C2A46" stroke="#1C2A46" points="1093,0 994,0 1145,135 "/>
<polygon fill="#264270" stroke="#264270" points="1000,285 1095,470 1140,335 "/>
<polygon fill="#A3CEEF" stroke="#A3CEEF" points="1130,685 1085,690 1130,770 "/>
<polygon fill="#274274" stroke="#274274" points="1000,285 950,430 1095,470 "/>
<polygon fill="#274274" stroke="#274274" points="1140,335 1095,470 1160,375 "/>
<polygon fill="#ACCCEC" stroke="#ACCCEC" points="1130,770 1020,825 1160,860 "/>
<polygon fill="#275A98" stroke="#275A98" points="1000,655 1085,690 1110,515 "/>
<polygon fill="#298FC9" stroke="#298FC9" points="1020,825 1010,1005 1050,1020 "/>
<polygon fill="#284578" stroke="#284578" points="1160,375 1095,470 1175,415 "/>
<polygon fill="#52A0D5" stroke="#52A0D5" points="1020,825 1050,1020 1160,860 "/>
<polygon fill="#2A65A2" stroke="#2A65A2" points="1110,515 1085,690 1130,685 "/>
<polygon fill="#27A5DF" stroke="#27A5DF" points="1050,1020 1093,1080 1193,1080 "/>
<polygon fill="#1C2A46" stroke="#1C2A46" points="1093,0 1145,135 1193,0 "/>
<polygon fill="#29477E" stroke="#29477E" points="1095,470 1110,515 1175,415 "/>
<polygon fill="#253962" stroke="#253962" points="1000,285 1140,335 1145,135 "/>
<polygon fill="#9AC7EB" stroke="#9AC7EB" points="1130,685 1130,770 1240,690 "/>
<polygon fill="#2894CC" stroke="#2894CC" points="1160,860 1050,1020 1193,1080 "/>
<polygon fill="#28487F" stroke="#28487F" points="1175,415 1110,515 1275,505 "/>
<polygon fill="#265F9F" stroke="#265F9F" points="1110,515 1130,685 1280,615 "/>
<polygon fill="#2379B3" stroke="#2379B3" points="1130,685 1240,690 1280,615 "/>
<polygon fill="#288FC9" stroke="#288FC9" points="1160,860 1193,1080 1270,925 "/>
<polygon fill="#284D8A" stroke="#284D8A" points="1275,505 1110,515 1280,615 "/>
<polygon fill="#284D8B" stroke="#284D8B" points="1275,505 1280,615 1295,550 "/>
<polygon fill="#279BD3" stroke="#279BD3" points="1270,925 1193,1080 1300,1020 "/>
<polygon fill="#27A5DF" stroke="#27A5DF" points="1193,1080 1292,1080 1300,1020 "/>
<polygon fill="#274D87" stroke="#274D87" points="1275,505 1295,550 1315,515 "/>
<polygon fill="#264271" stroke="#264271" points="1160,375 1175,415 1325,335 "/>
<polygon fill="#263F6E" stroke="#263F6E" points="1140,335 1160,375 1325,335 "/>
<polygon fill="#B2D4F1" stroke="#B2D4F1" points="1130,770 1160,860 1240,690 "/>
<polygon fill="#28467B" stroke="#28467B" points="1175,415 1275,505 1340,405 "/>
<polygon fill="#294272" stroke="#294272" points="1325,335 1175,415 1340,405 "/>
<polygon fill="#1C2A46" stroke="#1C2A46" points="1193,0 1145,135 1292,0 "/>
<polygon fill="#2E4B84" stroke="#2E4B84" points="1275,505 1315,515 1340,405 "/>
<polygon fill="#253B63" stroke="#253B63" points="1145,135 1140,335 1325,335 "/>
<polygon fill="#AED0ED" stroke="#AED0ED" points="1240,690 1160,860 1375,765 "/>
<polygon fill="#68ACDC" stroke="#68ACDC" points="1160,860 1270,925 1375,765 "/>
<polygon fill="#274D87" stroke="#274D87" points="1315,515 1295,550 1360,515 "/>
<polygon fill="#2894CC" stroke="#2894CC" points="1270,925 1300,1020 1390,975 "/>
<polygon fill="#23A1DA" stroke="#23A1DA" points="1300,1020 1292,1080 1392,1080 "/>
<polygon fill="#5CA1D1" stroke="#5CA1D1" points="1375,765 1270,925 1380,885 "/>
<polygon fill="#26477B" stroke="#26477B" points="1340,405 1315,515 1360,515 "/>
<polygon fill="#3896CD" stroke="#3896CD" points="1380,885 1390,975 1400,890 "/>
<polygon fill="#213151" stroke="#213151" points="1292,0 1145,135 1400,260 "/>
<polygon fill="#25385F" stroke="#25385F" points="1145,135 1325,335 1400,260 "/>
<polygon fill="#299FD8" stroke="#299FD8" points="1390,975 1300,1020 1392,1080 "/>
<polygon fill="#3294CC" stroke="#3294CC" points="1380,885 1270,925 1390,975 "/>
<polygon fill="#3D9CC9" stroke="#3D9CC9" points="1280,615 1240,690 1375,765 "/>
<polygon fill="#284D8B" stroke="#284D8B" points="1295,550 1280,615 1360,515 "/>
<polygon fill="#285B9B" stroke="#285B9B" points="1360,515 1280,615 1455,640 "/>
<polygon fill="#2B88C4" stroke="#2B88C4" points="1280,615 1375,765 1455,640 "/>
<polygon fill="#838EB2" stroke="#838EB2" points="1340,405 1360,515 1450,415 "/>
<polygon fill="#255C9E" stroke="#255C9E" points="1360,515 1455,640 1465,625 "/>
<polygon fill="#274372" stroke="#274372" points="1325,335 1340,405 1450,415 "/>
<polygon fill="#7DB5DF" stroke="#7DB5DF" points="1375,765 1380,885 1400,890 "/>
<polygon fill="#1F2D4B" stroke="#1F2D4B" points="1392,0 1292,0 1400,260 "/>
<polygon fill="#27A1DB" stroke="#27A1DB" points="1390,975 1392,1080 1491,1080 "/>
<polygon fill="#263E69" stroke="#263E69" points="1400,260 1450,415 1480,270 "/>
<polygon fill="#26406C" stroke="#26406C" points="1400,260 1325,335 1450,415 "/>
<polygon fill="#26A0D8" stroke="#26A0D8" points="1390,975 1491,1080 1530,1030 "/>
<polygon fill="#2485C1" stroke="#2485C1" points="1465,625 1455,640 1550,730 "/>
<polygon fill="#63B2E1" stroke="#63B2E1" points="1455,640 1375,765 1550,730 "/>
<polygon fill="#8CBFE5" stroke="#8CBFE5" points="1375,765 1545,775 1550,730 "/>
<polygon fill="#7DB5E1" stroke="#7DB5E1" points="1375,765 1400,890 1545,775 "/>
<polygon fill="#339BD3" stroke="#339BD3" points="1400,890 1390,975 1530,1030 "/>
<polygon fill="#1F2D4B" stroke="#1F2D4B" points="1392,0 1400,260 1491,0 "/>
<polygon fill="#284C87" stroke="#284C87" points="1450,415 1360,515 1465,625 "/>
<polygon fill="#28A6E0" stroke="#28A6E0" points="1530,1030 1491,1080 1591,1080 "/>
<polygon fill="#2485C1" stroke="#2485C1" points="1465,625 1550,730 1590,650 "/>
<polygon fill="#223356" stroke="#223356" points="1400,260 1480,270 1491,0 "/>
<polygon fill="#3098D0" stroke="#3098D0" points="1400,890 1530,1030 1595,935 "/>
<polygon fill="#26A3E0" stroke="#26A3E0" points="1530,1030 1591,1080 1595,1055 "/>
<polygon fill="#26406C" stroke="#26406C" points="1480,270 1450,415 1600,345 "/>
<polygon fill="#279BD3" stroke="#279BD3" points="1530,1030 1595,1055 1595,935 "/>
<polygon fill="#56A3D4" stroke="#56A3D4" points="1545,775 1400,890 1595,935 "/>
<polygon fill="#47A0D1" stroke="#47A0D1" points="1550,730 1590,725 1590,650 "/>
<polygon fill="#5EAFDE" stroke="#5EAFDE" points="1550,730 1545,775 1590,725 "/>
<polygon fill="#71B6E0" stroke="#71B6E0" points="1545,775 1595,935 1650,860 "/>
<polygon fill="#28A6E0" stroke="#28A6E0" points="1595,1055 1591,1080 1660,1055 "/>
<polygon fill="#5DA8D8" stroke="#5DA8D8" points="1590,725 1545,775 1675,775 "/>
<polygon fill="#79B5E2" stroke="#79B5E2" points="1545,775 1650,860 1675,775 "/>
<polygon fill="#3397CC" stroke="#3397CC" points="1590,650 1590,725 1670,665 "/>
<polygon fill="#202D4E" stroke="#202D4E" points="1491,0 1480,270 1591,0 "/>
<polygon fill="#23A9E0" stroke="#23A9E0" points="1660,1055 1591,1080 1690,1080 "/>
<polygon fill="#289CD4" stroke="#289CD4" points="1595,935 1595,1055 1660,1055 "/>
<polygon fill="#265997" stroke="#265997" points="1450,415 1465,625 1590,650 "/>
<polygon fill="#6CB0DC" stroke="#6CB0DC" points="1675,775 1650,860 1700,855 "/>
<polygon fill="#58A8DC" stroke="#58A8DC" points="1670,665 1590,725 1675,775 "/>
<polygon fill="#3896CD" stroke="#3896CD" points="1650,860 1595,935 1720,945 "/>
<polygon fill="#329CD4" stroke="#329CD4" points="1595,935 1660,1055 1720,945 "/>
<polygon fill="#58A8DC" stroke="#58A8DC" points="1670,665 1675,775 1730,735 "/>
<polygon fill="#2A487F" stroke="#2A487F" points="1450,415 1590,650 1600,345 "/>
<polygon fill="#2964A1" stroke="#2964A1" points="1590,650 1670,665 1735,565 "/>
<polygon fill="#3D97CC" stroke="#3D97CC" points="1700,855 1650,860 1720,945 "/>
<polygon fill="#2962A0" stroke="#2962A0" points="1735,565 1670,665 1745,625 "/>
<polygon fill="#25538E" stroke="#25538E" points="1600,345 1590,650 1735,565 "/>
<polygon fill="#274274" stroke="#274274" points="1685,345 1600,345 1770,500 "/>
<polygon fill="#2A487F" stroke="#2A487F" points="1600,345 1735,565 1770,500 "/>
<polygon fill="#263E69" stroke="#263E69" points="1600,345 1685,345 1775,260 "/>
<polygon fill="#248AC3" stroke="#248AC3" points="1670,665 1730,735 1745,625 "/>
<polygon fill="#279FD5" stroke="#279FD5" points="1660,1055 1690,1080 1720,945 "/>
<polygon fill="#213255" stroke="#213255" points="1591,0 1480,270 1775,260 "/>
<polygon fill="#263C65" stroke="#263C65" points="1480,270 1600,345 1775,260 "/>
<polygon fill="#73B0DD" stroke="#73B0DD" points="1730,735 1700,855 1800,770 "/>
<polygon fill="#26A0D8" stroke="#26A0D8" points="1720,945 1690,1080 1790,1080 "/>
<polygon fill="#1F2D4B" stroke="#1F2D4B" points="1690,0 1591,0 1775,260 "/>
<polygon fill="#73B0DD" stroke="#73B0DD" points="1675,775 1700,855 1730,735 "/>
<polygon fill="#4DA0D3" stroke="#4DA0D3" points="1700,855 1720,945 1845,830 "/>
<polygon fill="#53A3D5" stroke="#53A3D5" points="1800,770 1700,855 1845,830 "/>
<polygon fill="#35A1D8" stroke="#35A1D8" points="1720,945 1790,1080 1870,985 "/>
<polygon fill="#3595CC" stroke="#3595CC" points="1745,625 1730,735 1800,770 "/>
<polygon fill="#1F2D4B" stroke="#1F2D4B" points="1690,0 1775,260 1790,0 "/>
<polygon fill="#2A518D" stroke="#2A518D" points="1770,500 1895,500 1895,475 "/>
<polygon fill="#26A4DB" stroke="#26A4DB" points="1870,985 1790,1080 1889,1080 "/>
<polygon fill="#3896CD" stroke="#3896CD" points="1845,830 1720,945 1870,985 "/>
<polygon fill="#26A4DD" stroke="#26A4DD" points="1889,1080 1915,1075 1920,994 "/>
<polygon fill="#38A4DB" stroke="#38A4DB" points="1870,985 1889,1080 1920,994 "/>
<polygon fill="#329AD2" stroke="#329AD2" points="1870,985 1920,994 1920,895 "/>
<polygon fill="#409AD0" stroke="#409AD0" points="1845,830 1870,985 1920,895 "/>
<polygon fill="#253962" stroke="#253962" points="1920,198 1775,260 1920,298 "/>
<polygon fill="#26406C" stroke="#26406C" points="1775,260 1685,345 1920,397 "/>
<polygon fill="#28447A" stroke="#28447A" points="1685,345 1770,500 1920,397 "/>
<polygon fill="#27477E" stroke="#27477E" points="1770,500 1895,475 1920,397 "/>
<polygon fill="#263E69" stroke="#263E69" points="1920,298 1775,260 1920,397 "/>
<polygon fill="#27477E" stroke="#27477E" points="1920,397 1895,475 1920,497 "/>
<polygon fill="#2A508A" stroke="#2A508A" points="1895,475 1895,500 1920,497 "/>
<polygon fill="#275796" stroke="#275796" points="1895,500 1770,500 1920,596 "/>
<polygon fill="#285897" stroke="#285897" points="1770,500 1735,565 1920,596 "/>
<polygon fill="#265D9E" stroke="#265D9E" points="1735,565 1745,625 1920,596 "/>
<polygon fill="#275796" stroke="#275796" points="1920,497 1895,500 1920,596 "/>
<polygon fill="#2172B0" stroke="#2172B0" points="1920,596 1745,625 1920,696 "/>
<polygon fill="#3193CB" stroke="#3193CB" points="1745,625 1800,770 1920,696 "/>
<polygon fill="#379ACD" stroke="#379ACD" points="1920,696 1800,770 1920,795 "/>
<polygon fill="#68ADDD" stroke="#68ADDD" points="1800,770 1845,830 1920,795 "/>
<polygon fill="#70B1DE" stroke="#70B1DE" points="1845,830 1920,895 1920,795 "/>
<polygon fill="#24AAE1" stroke="#24AAE1" points="1915,1075 1889,1080 1920,1080 "/>
<polygon fill="#26A4DD" stroke="#26A4DD" points="1920,994 1915,1075 1920,1080 "/>
<polygon fill="#1B2947" stroke="#1B2947" points="1889,0 1790,0 1920,99 "/>
<polygon fill="#213557" stroke="#213557" points="1775,260 1920,198 1920,99 "/>
<polygon fill="#1F2F4F" stroke="#1F2F4F" points="1790,0 1775,260 1920,99 "/>
<polygon fill="#1B2947" stroke="#1B2947" points="1920,0 1889,0 1920,99 "/>
</svg>
